<svg xmlns="http://www.w3.org/2000/svg" viewBox="0 0 57 31.668"><defs><style>.a{fill:#21262d;}</style></defs><g transform="translate(-372 -95)"><path class="a" d="M-1734.26-871.7c-.417-.487.278-.765.278-.765,1.669-.9.765-1.113,2.155-2.156l1.321.278c-1.738,1.391-1.112,1.808-3.2,2.991a.089.089,0,0,1-.062.018C-1733.842-871.333-1733.995-871.389-1734.26-871.7Zm-34.965.348c-2.085-1.182-1.46-1.6-3.2-2.991l1.321-.278c1.39,1.043.487,1.252,2.155,2.156,0,0,.7.278.278.765-.266.31-.418.366-.494.366A.088.088,0,0,1-1769.225-871.351Zm26.206-2.435-1.39.7.278-1.461-1.113-1.113,1.529-.209.7-1.391.626,1.391,1.529.209-1.112,1.113.278,1.461Zm-8.48,0-1.321.7.278-1.461-1.112-1.113,1.529-.209.626-1.391.695,1.391,1.529.209-1.112,1.113.278,1.461Zm-8.411,0-1.321.7.208-1.461-1.043-1.113,1.459-.209.7-1.391.7,1.391,1.529.209-1.112,1.113.208,1.461Zm29.543-1.322a1.534,1.534,0,0,1-.556-.069c.347-.7,1.807-2.3,6.187-2.435a6.906,6.906,0,0,1-4.973,2.545A5.3,5.3,0,0,1-1730.368-875.107Zm-47.825-2.5c4.379.139,5.77,1.739,6.187,2.435a1.535,1.535,0,0,1-.556.069,5.3,5.3,0,0,1-.657.041A6.906,6.906,0,0,1-1778.193-877.611Zm46.5,2.087c-.765-2.087-.417-3.269-.139-3.756a3.593,3.593,0,0,1,.973,2.643,5.053,5.053,0,0,0-.765,1.252A.216.216,0,0,1-1731.688-875.525Zm-40.387-1.113a3.593,3.593,0,0,1,.973-2.643c.278.487.626,1.669-.139,3.756a.216.216,0,0,1-.069.139A5.048,5.048,0,0,0-1772.076-876.637Zm41.917-4.382a8.365,8.365,0,0,1,1.182-1.53c1.112,3.478-.417,4.869-.973,5.217A3.241,3.241,0,0,1-1730.159-881.019Zm-43.793-1.53a8.382,8.382,0,0,1,1.182,1.53,3.241,3.241,0,0,1-.209,3.687C-1773.535-877.681-1775.065-879.072-1773.953-882.55Zm46.3,2.852c1.668-1.6,3.059-1.183,3.059-1.183-.278,1.391-1.877,1.948-3.615,2.921A4.644,4.644,0,0,0-1727.657-879.7Zm-50.745-1.183c.07,0,1.39-.417,3.059,1.183a4.65,4.65,0,0,0,.556,1.739C-1776.525-878.933-1778.123-879.489-1778.4-880.88Zm13.972.9a6.76,6.76,0,0,1-.765-.348,1.452,1.452,0,0,1-.417-.278c-.139-.069-.278-.208-.486-.348l-.487-.348-.208-.209a.419.419,0,0,1-.069-.278v-14.26a.526.526,0,0,1,.278-.487l.347-.278c.348-.209.626-.417.834-.556a2.8,2.8,0,0,1,.626-.348,3.4,3.4,0,0,0,.486-.209,1.182,1.182,0,0,1,.487-.07,1.027,1.027,0,0,1,.486.07c.139.069.348.069.487.209a2.8,2.8,0,0,1,.626.348c.209.139.486.348.834.556l.348.278a.526.526,0,0,1,.278.487v3.06a.321.321,0,0,1-.209.348l-.973.278-.556.139v-3.9a1.393,1.393,0,0,0-.139-.626c-.07-.139-.208-.278-.278-.417l-.417-.209c-.139,0-.278-.07-.417-.07a.878.878,0,0,0-.417.07.6.6,0,0,0-.417.209.639.639,0,0,0-.278.417,1.4,1.4,0,0,0-.139.626v14.4a1.391,1.391,0,0,0,.139.626,1.511,1.511,0,0,0,.278.348l.417.209c.139,0,.278.07.417.07a.879.879,0,0,0,.417-.07.6.6,0,0,0,.417-.209.7.7,0,0,0,.278-.348,1.389,1.389,0,0,0,.139-.626v-4.8c0-.278-.07-.487-.278-.556a2.183,2.183,0,0,0-.9.069v-.556a1.768,1.768,0,0,0,.487-.139l3.267-.835v.557l-1.807.487.417.139c.347.139.556.278.626.557a2.881,2.881,0,0,1,.069.835v4.174a.466.466,0,0,1-.278.487l-.487.348c-.139.139-.348.209-.487.348-.139.07-.278.209-.417.278a2.391,2.391,0,0,1-.765.348,2.361,2.361,0,0,1-.7.07A2.136,2.136,0,0,1-1764.429-879.976Zm23.912-.069h-1.946v-17.807h2.711a3.342,3.342,0,0,1,1.529.278,3.506,3.506,0,0,1,.9.487l.069.07.069.07.07.069a1.873,1.873,0,0,1,.486.556,1.177,1.177,0,0,1,.208.7,3.673,3.673,0,0,1,.07.9v4.73a1.638,1.638,0,0,1-.139.557,1.515,1.515,0,0,1-.278.348,3.026,3.026,0,0,1-.487.278c-.209.069-.348.139-.625.209l.9.278c.417,0,.626.139.7.278.139.139.139.417.139.834v4.174c0,.348-.07.626-.07.9a1.236,1.236,0,0,1-.278.7,3.472,3.472,0,0,1-.486.556.243.243,0,0,1-.139.07c-.07,0-.07.069-.139.069a5.325,5.325,0,0,1-.9.487,8.131,8.131,0,0,1-1.529.209Zm1.251-8.277c-.208.07-.487.139-.7.209a2.466,2.466,0,0,1-.695.139v7.3h.973a.943.943,0,0,0,.626,0,.631.631,0,0,0,.486-.209,1.024,1.024,0,0,0,.348-.417,2.266,2.266,0,0,0,.139-.835v-5.773c0-.348-.139-.556-.348-.556A2.065,2.065,0,0,0-1739.265-888.323Zm-1.251-.209,1.182-.278a2.427,2.427,0,0,0,1.043-.487,1.8,1.8,0,0,0,.278-.974v-6.052a.826.826,0,0,0-.626-.765,4.07,4.07,0,0,0-.9-.139h-.973Zm-8.272-7.791a.255.255,0,0,0-.209.07,2.04,2.04,0,0,0-.208.7c0,.278-.139,1.043-.278,2.156-.069.487-.139,1.113-.278,1.809-.07.7-.209,1.6-.348,2.574s-.347,2.156-.486,3.478c-.209,1.322-.417,2.852-.695,4.591l-.07.209a.542.542,0,0,1-.278.278l-1.112.417h-.07l-.417-2.643-1.946-12.729a1.076,1.076,0,0,0-.139-.557c-.069-.139-.139-.209-.278-.209v16.137h-.626v-17.737h1.46a1.12,1.12,0,0,1,.626.209.735.735,0,0,1,.417.487,2.354,2.354,0,0,1,.278.835l1.877,12.521.209-1.322c.208-1.322.348-2.573.556-3.547q.209-1.565.417-2.713c.139-.765.208-1.461.278-2.017s.139-.974.208-1.391c.139-.835.209-1.391.278-1.6a1.645,1.645,0,0,1,.139-.556,3.4,3.4,0,0,1,.209-.487.71.71,0,0,1,.417-.348,1.657,1.657,0,0,1,.626-.139h1.39v16.972a.256.256,0,0,1-.07.209c-.07.069-.139.139-.208.139l-.556.139-.347.139-.417.139-.347.07Zm20.3,11.755c-.626-2.3-1.182-4.243.07-6.051.069.209.139.487.209.765.556,2.3,1.877,7.373.486,8.9A15.948,15.948,0,0,0-1728.491-884.567Zm-46.226-5.286c.07-.278.139-.557.209-.765,1.251,1.808.695,3.756.07,6.051a15.941,15.941,0,0,0-.765,3.617C-1776.663-882.48-1775.273-887.558-1774.717-889.853Zm48.451,4.8a4.585,4.585,0,0,1,1.6-1.808,5.458,5.458,0,0,1,1.321-.556.928.928,0,0,1,.348-.07,5.921,5.921,0,0,1-3.2,3.826A12.672,12.672,0,0,0-1726.266-885.054ZM-1780-887.488a1.412,1.412,0,0,0,.348.07,5.451,5.451,0,0,1,1.321.556,4.585,4.585,0,0,1,1.6,1.808c-.069.7,0,1.113-.069,1.391A5.921,5.921,0,0,1-1780-887.488Zm52.9-1.322a12.414,12.414,0,0,1,.417-3.13c.626.834,1.668,2.852.139,5.773C-1726.683-887.071-1726.962-887.975-1727.1-888.81Zm-49.146-3.13a12.4,12.4,0,0,1,.417,3.13c-.139.835-.417,1.739-.556,2.643C-1777.915-889.088-1776.872-891.106-1776.246-891.94Zm51.37,2.3c-.069-.487.487-.974.9-1.53a4.3,4.3,0,0,1,.139,1.461,3.243,3.243,0,0,1-1.39,2.156A7.28,7.28,0,0,0-1724.876-889.645Zm-54.22-.07a4.3,4.3,0,0,1,.139-1.461c.417.557.973,1.043.9,1.53a5.492,5.492,0,0,0,.347,2.087A3.243,3.243,0,0,1-1779.1-889.714Zm50.814-1.948c-1.043-1.182-3.684-4.452-3.476-5.912a.419.419,0,0,1,.07-.278c.139.139.278.348.486.556,1.251,1.461,3.545,4.243,3.059,5.843C-1728.143-891.523-1728.213-891.592-1728.282-891.662ZM-1771.8-897.3c.208-.209.348-.417.487-.556a.42.42,0,0,1,.069.278c.208,1.46-2.433,4.73-3.476,5.912,0,.07-.07.139-.139.209C-1775.343-893.053-1773.049-895.835-1771.8-897.3Zm44.28,3.408a4.366,4.366,0,0,1,.7-4.313c.695,2.017.695,3.617,0,4.73-.139.139-.209.278-.348.417C-1727.448-893.679-1727.518-893.957-1727.518-893.888Zm-48.659.417c-.7-1.113-.7-2.713,0-4.73a4.367,4.367,0,0,1,.7,4.313c0-.07-.07.209-.348.835C-1775.968-893.192-1776.038-893.331-1776.177-893.47Zm47.06-8.069a2.512,2.512,0,0,1,.626.9c.348.835.765,1.67.07,4.869v.278C-1729.394-897.435-1729.951-899.73-1729.117-901.539Zm-45.392,5.773c-.7-3.2-.278-4.034.07-4.869a2.515,2.515,0,0,1,.625-.9c.834,1.809.278,4.1-.695,6.052Zm42.125-7.234c.556.556,1.738,1.252,1.877,2.3a12.347,12.347,0,0,1,.069,2.713A9.044,9.044,0,0,1-1732.384-903Zm-40.04,2.3c.139-1.044,1.321-1.739,1.877-2.3a9.044,9.044,0,0,1-1.947,5.008A12.326,12.326,0,0,1-1772.423-900.7Z" transform="translate(2152 998)"/></g></svg>
