<svg width="143" height="20" viewBox="0 0 143 20" fill="none" xmlns="http://www.w3.org/2000/svg">
<g clip-path="url(#clip0_2950_1038)">
<path d="M35.218 4.13634C35.1985 4.27442 35.1433 4.33453 35.0102 4.33453H30.553V17.7741C30.553 17.9138 30.4961 18.0113 30.3273 18.0113H27.614C27.4825 18.0113 27.4256 17.9317 27.4256 17.7741V4.33453H23.0236C22.91 4.33453 22.8369 4.25493 22.8369 4.11522V2.61092C22.8369 2.45171 22.8743 2.4111 23.0448 2.4111H35.2196C35.2943 2.4111 35.3885 2.45171 35.3885 2.55081C35.3885 2.5703 35.3885 2.5898 35.3885 2.5898L35.218 4.13634Z" fill="white"></path>
<path d="M39.6816 18.2306C36.176 18.2306 34.1041 16.2861 34.1041 12.4555C34.1041 8.2886 36.3091 6.50326 39.6816 6.50326C43.0542 6.50326 45.2397 8.24962 45.2397 12.4555C45.2397 16.2666 43.1873 18.2306 39.6816 18.2306ZM39.6816 8.2886C37.8923 8.2886 37.2509 9.39977 37.2509 12.436C37.2509 15.313 37.9475 16.3852 39.6816 16.3852C41.4531 16.3852 42.0929 15.274 42.0929 12.436C42.0929 9.38028 41.4531 8.2886 39.6816 8.2886Z" fill="white"></path>
<path d="M57.9326 17.675C56.5573 17.8732 54.5958 18.19 53.0711 18.19C49.6596 18.19 47.8313 17.0398 47.8313 13.487V6.88012C47.8313 6.74041 47.8881 6.68193 48.0213 6.68193H50.7703C50.9034 6.68193 50.9586 6.76153 50.9586 6.86062V13.6462C50.9586 15.5518 51.6926 16.187 53.4267 16.187C53.9171 16.187 54.388 16.1463 54.8394 16.0667C54.9514 16.0473 55.0083 15.9677 55.0083 15.8686V6.86062C55.0083 6.74041 55.0651 6.68193 55.2161 6.68193H57.9489C58.0609 6.68193 58.1372 6.74203 58.1372 6.88012V17.3972C58.1405 17.5759 58.0836 17.636 57.9326 17.675Z" fill="white"></path>
<path d="M69.812 18.0324C68.888 18.0925 67.8894 18.2501 66.8356 18.2501C63.0295 18.2501 60.805 16.6418 60.805 12.2378C60.805 7.7931 63.1984 6.48212 66.7041 6.48212C67.7027 6.48212 68.6818 6.60234 69.4921 6.68031C69.6431 6.69981 69.6983 6.74042 69.6983 6.898L69.5099 8.24797C69.4726 8.38768 69.4352 8.44616 69.2842 8.44616L67.4364 8.42667C65.082 8.42667 64.007 9.32015 64.007 12.1566C64.007 14.8565 64.8368 16.1853 67.2107 16.1853H69.812C69.9808 16.1853 70.0182 16.2243 70.0182 16.364V17.8131C70.0182 17.9528 69.9808 17.9934 69.812 18.0324Z" fill="white"></path>
<path d="M82.7549 17.8148C82.7549 17.9528 82.7176 18.0129 82.586 18.0129H79.8159C79.6844 18.0129 79.6276 17.9528 79.6276 17.8148V11.0275C79.6276 9.04238 78.9115 8.42831 77.0653 8.42831H75.4821C75.3685 8.42831 75.3117 8.50791 75.3117 8.64762C75.3117 8.64762 75.3117 17.5971 75.3117 17.8148C75.3117 17.9528 75.2564 18.0129 75.1249 18.0129H72.3548C72.2217 18.0129 72.1843 17.9528 72.1843 17.8148C72.1843 13.232 72.1843 2.24053 72.1843 2.02285C72.1843 1.88476 72.2411 1.84415 72.3548 1.82466L75.1054 1.62646C75.237 1.62646 75.3117 1.66545 75.3117 1.82466V6.54387C75.3117 6.64297 75.349 6.70307 75.4821 6.70307C75.5016 6.70307 75.5195 6.70307 75.539 6.70307C75.539 6.70307 77.1205 6.52438 77.8934 6.52438C81.1539 6.52438 82.7549 7.95395 82.7549 11.2875V17.8148Z" fill="white"></path>
<path d="M94.5011 4.13632C94.4816 4.27441 94.4264 4.33451 94.2933 4.33451H89.8361V17.7741C89.8361 17.9138 89.7792 18.0113 89.6104 18.0113H86.8971C86.7655 18.0113 86.7087 17.9317 86.7087 17.7741V4.33451H82.3067C82.1931 4.33451 82.12 4.25491 82.12 4.1152V2.6109C82.12 2.4517 82.1573 2.41109 82.3278 2.41109H94.5027C94.5774 2.41109 94.6716 2.4517 94.6716 2.5508C94.6716 2.57029 94.6716 2.58979 94.6716 2.58979L94.5011 4.13632Z" fill="white"></path>
<path d="M103.995 17.675C102.62 17.8732 100.66 18.19 99.1337 18.19C95.7238 18.19 93.8955 17.0398 93.8955 13.487V6.88012C93.8955 6.74041 93.9523 6.68193 94.0838 6.68193H96.8361C96.9676 6.68193 97.0245 6.76153 97.0245 6.86062V13.6462C97.0245 15.5518 97.7584 16.187 99.4926 16.187C99.9829 16.187 100.454 16.1463 100.907 16.0667C101.021 16.0473 101.077 15.9677 101.077 15.8686V6.86062C101.077 6.74041 101.134 6.68193 101.285 6.68193H104.016C104.128 6.68193 104.205 6.74203 104.205 6.88012V17.3972C104.203 17.5759 104.146 17.636 103.995 17.675Z" fill="white"></path>
<path d="M117.885 18.013H115.116C114.985 18.013 114.928 17.9529 114.928 17.8148V11.0081C114.928 9.1821 114.267 8.44782 112.535 8.44782H110.8C110.687 8.44782 110.631 8.48843 110.631 8.64763V17.8148C110.631 17.9529 110.594 18.013 110.443 18.013H107.692C107.559 18.013 107.504 17.9529 107.504 17.8148V7.29603C107.504 7.13683 107.559 7.05723 107.673 7.05723C109.237 6.82005 111.328 6.52114 113.044 6.52114C116.587 6.52114 118.057 8.03031 118.057 11.3638V17.8131C118.055 17.9529 118.018 18.013 117.885 18.013Z" fill="white"></path>
<path d="M131.084 13.31H124.188C124.074 13.31 124.019 13.3295 124.019 13.4887C124.019 15.5924 125.112 16.2471 127.317 16.2471C128.014 16.2471 128.978 16.1675 129.9 16.0684C129.92 16.0684 129.938 16.0684 129.957 16.0684C130.032 16.0684 130.089 16.0879 130.089 16.2276C130.089 16.2276 130.089 16.2471 130.089 16.2682L129.9 17.7953C129.863 17.9545 129.806 17.9545 129.693 17.9935C128.749 18.1527 127.109 18.2517 126.411 18.2517C123.058 18.2517 120.645 16.9619 120.645 12.358C120.645 8.38932 122.699 6.48377 126.015 6.48377C130.123 6.48377 131.273 8.76621 131.273 13.0923C131.273 13.2499 131.198 13.31 131.084 13.31ZM125.995 8.3682C124.281 8.3682 123.923 9.71818 123.923 11.3248C123.923 11.5035 123.961 11.5441 124.094 11.5441H127.843C127.975 11.5441 128.051 11.523 128.051 11.3459C128.051 9.69868 127.749 8.3682 125.995 8.3682Z" fill="white"></path>
<path d="M136.866 18.2712C135.697 18.2712 134.53 18.1315 133.719 17.9934C133.568 17.9544 133.512 17.8943 133.512 17.7757V16.3267C133.512 16.2081 133.567 16.148 133.737 16.148C134.228 16.1886 135.452 16.2877 136.433 16.2877C137.901 16.2877 138.825 15.9904 138.825 14.9377C138.825 12.5757 133.53 13.232 133.53 9.63856C133.53 7.29763 135.717 6.38465 138.259 6.38465C139.372 6.38465 140.577 6.56335 141.481 6.76154C141.595 6.78103 141.707 6.84114 141.707 6.95973L141.481 8.29021C141.462 8.3893 141.424 8.44779 141.33 8.44779C141.33 8.44779 141.311 8.44779 141.293 8.44779C140.651 8.4088 139.541 8.3097 138.881 8.3097C137.563 8.3097 136.694 8.4884 136.694 9.50047C136.694 11.5847 141.971 10.8488 141.971 14.5608C141.971 16.8611 140.276 18.2712 136.866 18.2712Z" fill="white"></path>
</g>
<path d="M2.65581 4.93945C4.02366 4.93945 5.13097 3.83214 5.13097 2.46972C5.13097 1.1073 4.02366 0 2.65581 0C1.28797 0 0.180664 1.1073 0.180664 2.46972C0.180664 3.83214 1.28797 4.93945 2.65581 4.93945Z" fill="white"></path>
<path d="M9.1368 8.53819C10.5046 8.53819 11.612 7.43088 11.612 6.06846C11.612 4.70604 10.5046 3.59874 9.1368 3.59874C7.76896 3.59874 6.66165 4.70604 6.66165 6.06846C6.66165 7.43631 7.76896 8.53819 9.1368 8.53819Z" fill="white"></path>
<path d="M11.612 13.597C11.612 14.9595 10.5046 16.0668 9.1368 16.0668C7.76896 16.0668 6.66165 14.9595 6.66165 13.597C6.66165 12.2346 7.76896 11.1273 9.1368 11.1273C10.5046 11.1219 11.612 12.2292 11.612 13.597Z" fill="white"></path>
<path d="M15.5744 12.4517C16.9422 12.4517 18.0495 11.3444 18.0495 9.98202C18.0495 8.61961 16.9422 7.5123 15.5744 7.5123C14.2065 7.5123 13.0992 8.61961 13.0992 9.98202C13.0992 11.3499 14.2065 12.4517 15.5744 12.4517Z" fill="white"></path>
<path d="M5.13097 9.98202C5.13097 11.3444 4.02366 12.4517 2.65581 12.4517C1.28797 12.4517 0.180664 11.3444 0.180664 9.98202C0.180664 8.61961 1.28797 7.5123 2.65581 7.5123C4.02366 7.5123 5.13097 8.61961 5.13097 9.98202Z" fill="white"></path>
<path d="M2.65581 19.964C4.02366 19.964 5.13097 18.8567 5.13097 17.4943C5.13097 16.1319 4.02366 15.0246 2.65581 15.0246C1.28797 15.0246 0.180664 16.1319 0.180664 17.4943C0.180664 18.8567 1.28797 19.964 2.65581 19.964Z" fill="white"></path>
<defs>
<clipPath id="clip0_2950_1038">
<rect width="119.255" height="16.9409" fill="white" transform="translate(22.8369 1.45996)"></rect>
</clipPath>
</defs>
</svg>